# xmcd
#
# Track frame offsets: 
#        150
#        12049
#        29683
#        50870
#        74831
#        101880
#        123892
#        144559
#        177099
#        190216
#        203753
#        223403
#        233569
#        250194
#        261549
#
# Disc length: 3755 seconds
#
# Revision: 0
# Processed by: cddbd v1.5.2PL0 Copyright (c) Steve Scherf et al.
# Submitted via: ExactAudioCopy v1.2
#
DISCID=ec0ea90f
DTITLE=Joe Gaspar Band - JGB Blue
DYEAR=2018
DGENRE=Blues
TTITLE0=Mary
TTITLE1=Five Times
TTITLE2=Take My Hand Child
TTITLE3=Fool
TTITLE4=What I Should Know
TTITLE5=Ready Now
TTITLE6=Another Day
TTITLE7=Spider Queen
TTITLE8=I Love My Baby
TTITLE9=Talk to Me
TTITLE10=No Way of Pleasing You
TTITLE11=Come Back My Baby
TTITLE12=I Don’t Wanna Cause No Trouble
TTITLE13=Don't Let Her Go
TTITLE14=Spider Queen (Radio Edit)
EXTD=
EXTT0=
EXTT1=
EXTT2=
EXTT3=
EXTT4=
EXTT5=
EXTT6=
EXTT7=
EXTT8=
EXTT9=
EXTT10=
EXTT11=
EXTT12=
EXTT13=
EXTT14=
PLAYORDER=
